<?xml version="1.0" encoding="UTF-8"?><svg id="a" xmlns="http://www.w3.org/2000/svg" xmlns:xlink="http://www.w3.org/1999/xlink" viewBox="0 0 156.26 155.08"><defs><style>.h{fill:#fdc200;}.i{fill:#e08f00;}.j{fill:url(#c);}.k{fill:#d47a00;}.l{fill:#c25d00;}.m{fill:url(#f);}.n{fill:url(#g);}.o{fill:url(#b);}.p{fill:url(#d);}.q{fill:#c96800;}.r{fill:url(#e);}.s{fill:#df8e00;}.t{fill:#e99f00;}</style><linearGradient id="b" x1="230.74" y1="445.25" x2="230.74" y2="538.58" gradientTransform="translate(-152.25 -414.57)" gradientUnits="userSpaceOnUse"><stop offset="0" stop-color="#d4d4d4"/><stop offset="1" stop-color="gray"/></linearGradient><linearGradient id="c" x1="230.45" y1="445.25" x2="230.45" y2="538.58" xlink:href="#b"/><linearGradient id="d" x1="230.51" y1="435.52" x2="230.51" y2="548.31" gradientTransform="translate(-152.25 -414.57)" gradientUnits="userSpaceOnUse"><stop offset="0" stop-color="#ffc500"/><stop offset="1" stop-color="#c25c00"/></linearGradient><linearGradient id="e" x1="230.74" y1="435.52" x2="230.74" y2="548.31" xlink:href="#d"/><linearGradient id="f" x1="201.73" y1="452.25" x2="201.73" y2="521.6" gradientTransform="translate(-152.25 -414.57)" gradientUnits="userSpaceOnUse"><stop offset="0" stop-color="#c25c00"/><stop offset="1" stop-color="#ffc400"/></linearGradient><linearGradient id="g" x1="258.36" y1="452.43" x2="258.36" y2="522.23" gradientTransform="translate(-152.25 -414.57)" gradientUnits="userSpaceOnUse"><stop offset="0" stop-color="#c25c00"/><stop offset="1" stop-color="#ffc400"/></linearGradient></defs><path class="l" d="M53.37,147.83c0,3.01-2.5,5.48-5.54,5.48s-5.54-2.48-5.54-5.48,2.5-5.48,5.54-5.48c3.13,0,5.54,2.48,5.54,5.48Z"/><path class="l" d="M68.21,135.26l-16,15.84-7.96-7.61,14.21-13.8,9.74,5.57Z"/><path class="q" d="M24.23,146.32c0,4.78-3.93,8.76-8.85,8.76s-8.85-3.89-8.85-8.76,3.93-8.76,8.85-8.76,8.85,3.89,8.85,8.76Z"/><path class="q" d="M48,126.24l-25.66,25.39-12.78-12.12,25.66-25.39,12.78,12.12Z"/><path class="k" d="M13.86,119.87c0,3.8-3.13,6.81-6.88,6.81s-6.97-3.01-6.97-6.81,3.13-6.81,6.88-6.81,6.97,3.01,6.97,6.81Z"/><path class="s" d="M13.14,94.39c0,3.01-2.5,5.48-5.54,5.48s-5.54-2.48-5.54-5.48,2.5-5.48,5.54-5.48,5.54,2.48,5.54,5.48Z"/><path class="s" d="M23.51,85.99l-11.53,11.68-7.96-7.61,16-15.75,3.49,11.68Z"/><path class="h" d="M102.89,7.25c0-3.01,2.5-5.48,5.54-5.48s5.54,2.48,5.54,5.48-2.5,5.48-5.54,5.48-5.54-2.48-5.54-5.48Z"/><path class="h" d="M88.05,19.73L104.05,3.89l7.96,7.61-14.21,13.8-9.74-5.57Z"/><path class="h" d="M132.03,8.76c0-4.78,3.93-8.76,8.85-8.76s8.85,3.89,8.85,8.76-3.93,8.76-8.85,8.76-8.85-3.98-8.85-8.76Z"/><path class="h" d="M108.34,28.75L134,3.36l12.78,12.12-25.66,25.39-12.78-12.12Z"/><path class="t" d="M142.49,35.12c0-3.8,3.13-6.81,6.88-6.81s6.88,3.1,6.88,6.81-3.13,6.81-6.88,6.81-6.88-3.01-6.88-6.81Z"/><path class="t" d="M127.38,47.42l16.54-16.45,10.01,9.55-20.11,19.9-6.44-13Z"/><path class="i" d="M143.12,60.6c0-3.01,2.5-5.48,5.54-5.48s5.54,2.48,5.54,5.48-2.5,5.48-5.54,5.48-5.54-2.48-5.54-5.48Z"/><path class="i" d="M132.75,69l11.53-11.68,7.96,7.61-16,15.84-3.49-11.77Z"/><path class="k" d="M22.35,109.17c-.89,.09-2.15,.18-2.32-.44-.18-.71,.8-2.12,.8-2.12h0c1.16-1.59,2.77-3.8,4.38-6.19l-2.86-5.75L2.32,114.56l10.01,9.55,15.55-15.39c-2.5,.18-4.47,.35-5.54,.44Z"/><path class="o" d="M130.15,77.32c0-28.19-23.18-51.13-51.67-51.13S26.82,49.12,26.82,77.32c0,5.94,1.04,11.64,2.94,16.94,3.22-4.53,6.03-8.56,6.66-9.6-.43-2.39-.66-4.84-.66-7.34,0-23.32,19.17-42.29,42.73-42.29s42.73,18.97,42.73,42.29c0,3.01-.33,5.95-.94,8.78,1.05,1.59,3.65,5.26,6.52,9.29,2.16-5.62,3.36-11.71,3.36-18.07Z"/><path class="j" d="M108.46,107.36c-7.72,7.51-18.31,12.16-29.97,12.16s-22.93-4.95-30.7-12.89c-3.72,.38-7.4,.75-10.78,1.09,9.42,12.52,24.51,20.65,41.48,20.65s31.46-7.82,40.91-19.92l-10.94-1.08Z"/><path class="p" d="M78.49,131.24c-18.54,0-34.94-9.19-44.8-23.19-2.03,.21-3.89,.39-5.52,.56,10.55,16.5,29.16,27.5,50.33,27.5s39.24-10.68,49.86-26.78l-5.58-.55c-9.92,13.59-26.07,22.47-44.28,22.47Z"/><path class="r" d="M137.97,77.32c0-32.46-26.69-58.87-59.49-58.87S19,44.86,19,77.32c0,8.68,1.93,16.92,5.36,24.35l.94-1.17c.79-1.1,1.62-2.25,2.44-3.4-2.46-6.13-3.82-12.8-3.82-19.78,0-29.78,24.48-54.01,54.57-54.01s54.57,24.23,54.57,54.01c0,7.4-1.52,14.45-4.26,20.87,1.13,1.57,2.25,3.13,3.3,4.59,3.76-7.71,5.87-16.34,5.87-25.46Z"/><path class="m" d="M23.06,107.04s14.03-17.96,14.03-18.4c-.09-.8,26.01-1.5,26.1-1.77,.27-.8,12.69-49.28,12.69-49.28l-.36,63.43-52.47,6.02Z"/><path class="n" d="M80.18,101.65l-.63-63.78s12.69,48.83,12.96,49.63c.09,.27,26.19,.97,26.1,1.77-.09,.44,14.03,18.4,14.03,18.4l-52.47-6.02Z"/></svg>